<?xml version="1.0" standalone="no"?>
<!DOCTYPE svg PUBLIC "-//W3C//DTD SVG 20010904//EN"
 "http://www.w3.org/TR/2001/REC-SVG-20010904/DTD/svg10.dtd">
<svg version="1.0" xmlns="http://www.w3.org/2000/svg"
 width="512.000000pt" height="512.000000pt" viewBox="0 0 512.000000 512.000000"
 preserveAspectRatio="xMidYMid meet">

<g transform="translate(0.000000,512.000000) scale(0.100000,-0.100000)"
fill="#000000" stroke="none">
<path d="M2470 4710 l-1175 -5 -104 -180 c-316 -549 -383 -665 -536 -930 -181
-312 -237 -410 -450 -780 -76 -132 -142 -247 -148 -256 -11 -17 -22 5 223
-419 84 -146 168 -290 185 -320 17 -30 92 -158 165 -285 73 -126 176 -304 228
-395 52 -91 135 -235 185 -320 49 -85 127 -221 174 -302 l84 -148 1257 0 1257
0 66 113 c36 61 110 189 164 282 53 94 139 240 190 325 51 85 170 290 265 455
95 165 207 359 248 430 41 72 126 220 189 330 63 110 119 204 124 209 5 6 9
16 9 24 0 13 -89 172 -260 467 -91 156 -466 807 -784 1360 -54 94 -123 212
-153 263 l-54 92 -87 -2 c-48 -2 -616 -5 -1262 -8z m-290 -2165 l0 -1635 -138
0 c-120 0 -139 2 -148 18 -6 9 -62 105 -124 212 -202 350 -382 661 -492 851
-59 102 -110 194 -114 203 -6 15 7 16 147 14 l153 -3 128 -220 c71 -121 164
-283 208 -360 43 -77 86 -149 94 -160 14 -18 15 95 16 1074 0 624 -4 1091 -9
1085 -5 -5 -79 -133 -166 -284 -87 -151 -182 -317 -213 -367 l-54 -93 -149 0
c-91 0 -149 4 -149 10 0 5 28 58 63 117 35 60 119 205 187 323 68 118 153 267
190 330 37 63 111 192 165 285 54 94 107 185 119 202 l21 33 133 0 132 0 0
-1635z m1051 1607 c9 -15 78 -135 154 -267 77 -132 178 -307 225 -390 48 -82
146 -252 218 -377 73 -124 132 -229 132 -232 0 -3 -69 -6 -153 -6 l-152 0
-102 178 c-231 403 -315 548 -324 556 -5 6 -9 -413 -9 -1074 0 -675 4 -1080 9
-1074 10 9 48 75 308 527 l126 217 154 0 154 0 -16 -30 c-9 -16 -29 -54 -47
-82 -42 -72 -462 -800 -561 -972 -43 -77 -90 -157 -103 -178 l-25 -39 -132 3
-132 3 -3 1620 c-1 891 0 1626 3 1633 3 9 39 12 132 12 l128 0 16 -28z"/>
</g>
</svg>
